<?xml version="1.0" standalone="no"?><!DOCTYPE svg PUBLIC "-//W3C//DTD SVG 1.1//EN" "http://www.w3.org/Graphics/SVG/1.1/DTD/svg11.dtd"><svg t="1545015889074" class="icon" style="" viewBox="0 0 1024 1024" version="1.1" xmlns="http://www.w3.org/2000/svg" p-id="2247" xmlns:xlink="http://www.w3.org/1999/xlink" width="200" height="200"><defs><style type="text/css"></style></defs><path d="M729.7024 342.4256L638.976 289.6896c1.4336 0.8192 1.9456 3.072 1.024 5.9392l-90.0096 272.5888c-0.8192 2.4576-2.3552 4.3008-3.9936 5.2224-1.1264 0.6144-2.2528 0.8192-3.1744 0.3072l90.7264 52.736c0.8192 0.512 2.048 0.3072 3.1744-0.3072 1.6384-0.9216 3.1744-2.8672 3.9936-5.2224l90.0096-272.5888c0.9216-2.8672 0.4096-5.12-1.024-5.9392z" fill="#B82200" p-id="2248"></path><path d="M634.6752 629.8624c-0.9216 0-1.8432-0.2048-2.6624-0.7168l-90.7264-52.736c-1.4336-0.8192-1.9456-2.7648-1.1264-4.1984 0.8192-1.3312 2.4576-1.8432 3.8912-1.2288 0.1024 0 0.2048-0.1024 0.4096-0.2048 0.8192-0.512 2.048-1.7408 2.6624-3.584l90.0096-272.5888c0.4096-1.3312 0.3072-2.1504 0.2048-2.4576-1.3312-0.9216-1.8432-2.6624-0.9216-4.096 0.8192-1.4336 2.7648-1.9456 4.1984-1.1264l90.7264 52.736c2.8672 1.6384 3.7888 5.4272 2.3552 9.6256l-90.0096 272.5888c-1.024 2.9696-2.9696 5.5296-5.4272 6.9632-1.2288 0.6144-2.4576 1.024-3.584 1.024z m-84.8896-55.6032l84.992 49.4592c0.1024 0 0.2048-0.1024 0.3072-0.2048 0.8192-0.512 2.048-1.7408 2.6624-3.584l90.0096-272.5888c0.4096-1.3312 0.3072-2.1504 0.2048-2.4576L643.072 295.5264l-0.3072 0.9216-90.0096 272.5888c-0.512 2.048-1.6384 3.7888-2.9696 5.2224z" fill="#4D2200" p-id="2249"></path><path d="M615.936 753.152L525.1072 700.416c-2.3552-1.3312-4.3008-3.3792-5.7344-6.144-14.336-26.8288-41.472-77.4144-42.9056-80.0768l90.7264 52.736c1.4336 2.6624 28.5696 53.248 42.9056 80.0768 1.536 2.6624 3.4816 4.7104 5.8368 6.144zM460.3904 844.3904L369.664 791.552c-2.2528-1.3312-4.096-3.2768-5.5296-5.8368-26.9312-49.3568-116.3264-212.992-153.3952-280.7808-7.5776-13.824 3.8912-41.5744 21.4016-51.6096l90.7264 52.736c-17.5104 10.1376-28.9792 37.7856-21.4016 51.6096 37.0688 67.7888 126.464 231.424 153.3952 280.7808 1.4336 2.6624 3.2768 4.608 5.5296 5.9392z" fill="#951B00" p-id="2250"></path><path d="M567.296 666.9312l-90.8288-52.736 33.6896-101.2736 90.7264 52.8384z" fill="#DB2900" p-id="2251"></path><path d="M615.8336 756.224c-0.512 0-1.024-0.1024-1.536-0.4096l-90.7264-52.736c-2.8672-1.6384-5.2224-4.096-6.9632-7.3728-13.5168-25.2928-38.5024-71.8848-42.3936-79.2576l-0.4096-0.8192c-0.6144-1.2288-0.4096-2.6624 0.6144-3.6864 1.024-0.9216 2.4576-1.1264 3.6864-0.4096l90.7264 52.736c0.512 0.3072 0.9216 0.7168 1.1264 1.2288 1.4336 2.6624 28.5696 53.248 42.9056 80.0768 1.1264 2.1504 2.6624 3.7888 4.4032 4.8128 1.024 0.512 1.7408 1.536 1.7408 2.7648 0 1.6384-1.3312 2.9696-3.1744 3.072 0.1024 0 0.1024 0 0 0zM484.352 622.2848c8.8064 16.4864 26.9312 50.2784 37.7856 70.5536 1.1264 2.1504 2.7648 3.8912 4.608 4.9152l77.824 45.2608c-14.0288-26.2144-36.0448-67.2768-39.5264-73.8304L484.352 622.2848zM460.3904 847.4624c-0.512 0-1.024-0.1024-1.536-0.4096l-90.7264-52.736c-2.7648-1.6384-5.0176-3.9936-6.656-6.9632-26.9312-49.3568-116.3264-212.992-153.3952-280.7808-8.4992-15.4624 3.3792-44.6464 22.6304-55.808 0.9216-0.512 2.1504-0.512 3.072 0l90.7264 52.736c0.9216 0.512 1.536 1.536 1.536 2.6624s-0.6144 2.1504-1.536 2.6624c-16.0768 9.3184-27.136 35.0208-20.2752 47.5136 37.0688 67.7888 126.464 231.424 153.3952 280.7808 1.1264 1.9456 2.4576 3.4816 4.1984 4.5056 1.024 0.512 1.7408 1.536 1.7408 2.7648-0.1024 1.6384-1.4336 2.9696-3.1744 3.072zM232.2432 456.9088c-15.2576 9.9328-25.3952 34.5088-18.8416 46.592 37.0688 67.7888 126.464 231.424 153.3952 280.7808 1.1264 2.048 2.56 3.584 4.3008 4.608l77.824 45.2608C418.816 778.8544 334.5408 624.64 298.8032 559.2064c-7.7824-14.336 1.6384-40.3456 18.3296-52.9408l-84.8896-49.3568z" fill="#4D2200" p-id="2252"></path><path d="M567.296 670.0032c-0.512 0-1.024-0.1024-1.536-0.4096l-90.7264-52.736c-1.2288-0.7168-1.8432-2.2528-1.3312-3.584l33.6896-101.1712c0.3072-0.9216 0.9216-1.536 1.8432-1.9456s1.8432-0.2048 2.6624 0.2048l90.7264 52.736c1.2288 0.7168 1.8432 2.2528 1.3312 3.584l-33.6896 101.1712c-0.3072 0.9216-0.9216 1.536-1.8432 1.9456-0.4096 0.1024-0.8192 0.2048-1.1264 0.2048z m-87.04-57.2416l85.2992 49.5616 31.6416-95.232-85.2992-49.5616-31.6416 95.232z" fill="#4D2200" p-id="2253"></path><path d="M718.848 180.3264c-4.3008-2.4576-10.1376-2.2528-16.9984 1.7408L535.552 278.1184l90.7264 52.736L792.576 234.8032c6.7584-3.8912 12.6976-4.1984 16.9984-1.7408L718.848 180.3264z" fill="#DB2900" p-id="2254"></path><path d="M626.3808 333.9264c-0.512 0-1.024-0.1024-1.536-0.4096l-90.7264-52.736c-0.9216-0.512-1.536-1.536-1.536-2.6624s0.6144-2.1504 1.536-2.6624L700.416 179.4048c4.3008-2.4576 8.3968-3.6864 12.288-3.6864 2.8672 0 5.4272 0.7168 7.7824 2.048l90.7264 52.736c1.4336 0.8192 1.9456 2.7648 1.1264 4.1984-0.8192 1.4336-2.7648 1.9456-4.1984 1.1264-1.3312-0.8192-2.9696-1.2288-4.7104-1.2288-2.7648 0-5.8368 1.024-9.216 2.8672l-166.2976 96.0512c-0.512 0.3072-1.024 0.4096-1.536 0.4096zM541.696 278.1184l84.5824 49.152 164.7616-95.1296c2.048-1.2288 4.096-2.1504 6.0416-2.7648l-79.872-46.3872c-1.3312-0.8192-2.9696-1.2288-4.7104-1.2288-2.7648 0-5.8368 1.024-9.216 2.8672L541.696 278.1184z" fill="#4D2200" p-id="2255"></path><path d="M535.6544 278.1184c-11.9808 6.8608-22.8352 21.0944-27.8528 36.4544L393.8304 660.0704c-0.8192 2.4576-2.3552 4.3008-3.9936 5.2224-1.1264 0.6144-2.2528 0.8192-3.1744 0.3072l90.7264 52.736c0.8192 0.512 2.048 0.3072 3.1744-0.3072 1.6384-0.9216 3.1744-2.8672 3.9936-5.2224l113.9712-345.4976c5.12-15.36 15.9744-29.5936 27.8528-36.4544l-90.7264-52.736z" fill="#B82200" p-id="2256"></path><path d="M478.5152 721.8176c-0.9216 0-1.8432-0.2048-2.6624-0.7168L385.024 668.3648c-1.4336-0.8192-1.9456-2.7648-1.1264-4.1984 0.8192-1.3312 2.4576-1.8432 3.8912-1.2288 0.1024 0 0.2048-0.1024 0.4096-0.2048 0.8192-0.512 2.048-1.7408 2.6624-3.584L504.832 313.6512c5.3248-16.1792 16.5888-30.8224 29.2864-38.1952 0.9216-0.512 2.1504-0.512 3.072 0l90.7264 52.736c0.9216 0.512 1.536 1.536 1.536 2.6624s-0.6144 2.1504-1.536 2.6624c-11.264 6.5536-21.7088 20.1728-26.5216 34.816L487.424 713.8304c-1.024 2.9696-2.9696 5.5296-5.4272 6.9632-1.1264 0.6144-2.3552 1.024-3.4816 1.024z m-84.8896-55.6032l84.992 49.4592c0.1024 0 0.2048-0.1024 0.3072-0.2048 0.8192-0.512 2.048-1.7408 2.6624-3.584l113.9712-345.4976c4.7104-14.336 14.0288-27.4432 24.9856-35.4304L535.6544 281.6c-10.6496 6.8608-20.3776 19.8656-24.9856 33.8944L396.6976 661.0944c-0.6144 1.9456-1.7408 3.6864-3.072 5.12z" fill="#4D2200" p-id="2257"></path><path d="M474.9312 498.0736c-0.7168-1.2288-1.6384-2.1504-2.6624-2.7648l-90.7264-52.736c1.1264 0.6144 2.048 1.536 2.6624 2.7648l41.7792 73.9328 90.7264 52.736-41.7792-73.9328z" fill="#951B00" p-id="2258"></path><path d="M516.8128 575.1808c-0.512 0-1.024-0.1024-1.536-0.4096l-90.7264-52.736c-0.512-0.3072-0.8192-0.7168-1.1264-1.1264l-41.7792-73.9328c-0.4096-0.7168-0.9216-1.3312-1.536-1.6384-1.4336-0.8192-1.9456-2.7648-1.1264-4.1984 0.8192-1.4336 2.7648-1.9456 4.1984-1.1264l90.7264 52.736c1.536 0.9216 2.8672 2.2528 3.7888 3.9936l41.7792 73.9328c0.7168 1.2288 0.512 2.7648-0.512 3.6864-0.6144 0.512-1.4336 0.8192-2.1504 0.8192zM428.3392 517.12l80.1792 46.592-36.2496-64.1024c-0.4096-0.7168-0.9216-1.3312-1.536-1.6384l-79.2576-46.08 36.864 65.2288z" fill="#4D2200" p-id="2259"></path><path d="M422.5024 353.0752c-5.2224-3.072-12.3904-2.4576-20.0704 1.9456l-170.2912 98.304 90.7264 52.736 170.2912-98.304c7.68-4.4032 14.848-5.0176 20.0704-1.9456l-90.7264-52.736z" fill="#DB2900" p-id="2260"></path><path d="M322.9696 509.2352c-0.512 0-1.024-0.1024-1.536-0.4096l-90.7264-52.736c-0.9216-0.512-1.536-1.536-1.536-2.6624s0.6144-2.1504 1.536-2.6624l170.2912-98.304c4.9152-2.8672 9.728-4.3008 14.2336-4.3008 3.2768 0 6.3488 0.8192 8.9088 2.3552l90.7264 52.736c1.4336 0.8192 1.9456 2.7648 1.1264 4.1984-0.8192 1.4336-2.7648 1.9456-4.1984 1.1264-4.3008-2.4576-10.5472-1.7408-16.9984 1.9456l-170.2912 98.304c-0.512 0.2048-1.024 0.4096-1.536 0.4096z m-84.6848-55.9104l84.5824 49.152 168.7552-97.4848c2.7648-1.6384 5.5296-2.7648 8.2944-3.4816l-78.9504-45.8752c-4.3008-2.4576-10.5472-1.7408-16.9984 1.9456l-165.6832 95.744z" fill="#4D2200" p-id="2261"></path><path d="M792.576 234.8032c17.6128-10.1376 29.184 4.1984 21.7088 26.8288L663.552 716.9024c-4.7104 14.336-14.848 27.4432-25.9072 33.8944-12.0832 6.9632-22.528 5.3248-27.4432-3.7888-14.336-26.8288-41.472-77.4144-42.9056-80.0768l33.6896-101.1712 31.744 59.8016c0.8192 1.536 2.4576 1.536 3.9936 0.6144 1.6384-0.9216 3.1744-2.8672 3.9936-5.2224l90.0096-272.5888c1.536-4.7104-0.9216-7.68-4.5056-5.632l-70.2464 41.3696c-6.3488 3.7888-12.1856 11.3664-14.9504 19.5584L506.4704 809.3696c-4.608 13.824-14.336 26.5216-25.088 32.768-11.5712 6.656-21.7088 5.2224-26.5216-3.584-26.9312-49.3568-116.3264-212.992-153.3952-280.7808-7.5776-13.824 3.8912-41.5744 21.4016-51.6096l170.2912-98.304c10.9568-6.3488 20.8896-4.8128 25.6 3.9936l31.1296 58.6752-33.1776 101.6832-41.7792-73.9328c-2.4576-4.3008-7.4752-5.0176-12.9024-1.8432l-71.168 41.0624c-4.5056 2.56-7.4752 9.728-5.5296 13.312l91.0336 166.8096c0.8192 1.536 2.4576 1.536 3.9936 0.6144 1.6384-0.9216 3.1744-2.8672 3.9936-5.2224l113.9712-345.4976c5.12-15.36 15.9744-29.5936 27.8528-36.4544l166.4-96.256z" fill="#FF3100" p-id="2262"></path><path d="M467.8656 849.3056c-6.8608 0-12.3904-3.2768-15.6672-9.3184-26.9312-49.3568-116.3264-212.992-153.3952-280.7808-8.4992-15.4624 3.3792-44.6464 22.6304-55.808l170.2912-98.304c4.9152-2.8672 9.728-4.3008 14.2336-4.3008 6.8608 0 12.3904 3.3792 15.6672 9.4208l31.1296 58.6752c0.4096 0.7168 0.512 1.6384 0.2048 2.3552l-33.1776 101.6832c-0.4096 1.1264-1.4336 1.9456-2.6624 2.1504-1.2288 0.1024-2.3552-0.512-2.9696-1.536l-41.7792-73.9328c-0.8192-1.536-2.048-2.2528-3.7888-2.2528-1.4336 0-3.1744 0.512-4.9152 1.536l-71.168 41.0624c-3.4816 2.048-5.3248 7.3728-4.4032 9.1136l90.8288 166.2976h0.1024c0.8192-0.512 2.048-1.7408 2.6624-3.584l113.9712-345.4976c5.3248-16.1792 16.5888-30.8224 29.2864-38.1952l166.2976-96.0512c4.3008-2.4576 8.3968-3.6864 12.288-3.6864 5.12 0 9.5232 2.2528 12.4928 6.3488 4.608 6.4512 5.12 16.5888 1.4336 27.8528L666.4192 717.824c-5.0176 15.1552-15.4624 28.7744-27.3408 35.5328-5.4272 3.1744-10.6496 4.7104-15.5648 4.7104-7.0656 0-12.8-3.4816-16.1792-9.728-14.336-26.8288-41.472-77.4144-42.9056-80.0768-0.4096-0.7168-0.512-1.6384-0.2048-2.4576l33.6896-101.1712c0.4096-1.1264 1.4336-1.9456 2.6624-2.048 1.2288-0.1024 2.3552 0.512 2.9696 1.6384l31.4368 59.2896h0.1024c0.8192-0.512 2.048-1.7408 2.6624-3.584l90.0096-272.5888c0.3072-1.024 0.3072-1.7408 0.3072-2.1504-0.1024 0-0.2048 0.1024-0.4096 0.2048L657.408 386.7648c-5.7344 3.3792-11.0592 10.4448-13.5168 17.92L509.3376 810.2912c-4.8128 14.6432-14.9504 27.7504-26.4192 34.4064-5.3248 3.072-10.3424 4.608-15.0528 4.608z m37.9904-442.368c-3.3792 0-7.168 1.2288-11.1616 3.4816l-170.2912 98.304c-16.0768 9.3184-27.136 35.0208-20.2752 47.5136 37.0688 67.7888 126.464 231.424 153.3952 280.7808 2.2528 4.096 5.632 6.144 10.24 6.144 3.584 0 7.68-1.3312 11.9808-3.7888 10.0352-5.8368 19.3536-18.0224 23.6544-31.0272L637.952 402.7392c2.9696-9.0112 9.216-17.1008 16.2816-21.2992l70.2464-41.3696c1.3312-0.7168 2.56-1.1264 3.7888-1.1264 1.8432 0 3.4816 0.8192 4.608 2.3552 1.4336 1.9456 1.6384 4.9152 0.6144 7.9872l-90.0096 272.5888c-1.024 2.9696-2.9696 5.5296-5.4272 6.9632-1.2288 0.7168-2.3552 1.024-3.584 1.024-2.048 0-3.7888-1.024-4.7104-2.8672L601.4976 573.44l-30.9248 93.184c4.4032 8.192 28.8768 53.8624 42.2912 78.9504 2.2528 4.3008 6.0416 6.4512 10.752 6.4512 3.6864 0 7.9872-1.3312 12.4928-3.8912 10.4448-6.0416 20.0704-18.6368 24.576-32.1536l150.8352-455.2704c3.072-9.216 2.8672-17.6128-0.6144-22.3232-1.8432-2.4576-4.3008-3.7888-7.4752-3.7888-2.7648 0-5.8368 1.024-9.216 2.8672l-166.2976 96.0512c-11.264 6.5536-21.7088 20.1728-26.5216 34.816L487.424 713.8304c-1.024 2.9696-2.9696 5.5296-5.4272 6.9632-1.2288 0.7168-2.3552 1.024-3.584 1.024-2.048 0-3.7888-1.024-4.7104-2.8672l-91.0336-166.7072c-2.9696-5.4272 1.2288-14.2336 6.656-17.408l71.168-41.0624c2.7648-1.536 5.4272-2.3552 7.9872-2.3552 3.8912 0 7.2704 1.9456 9.1136 5.3248l38.4 67.8912 30.6176-93.9008-30.5152-57.5488c-2.1504-4.096-5.7344-6.2464-10.24-6.2464z" fill="#4D2200" p-id="2263"></path></svg>